{
	"asset":{
		"generator":"Khronos glTF Blender I/O v4.4.55",
		"version":"2.0"
	},
	"scene":0,
	"scenes":[
		{
			"name":"Scene",
			"nodes":[
				1,
				3,
				5,
				7,
				9,
				11,
				13,
				15,
				17,
				19
			]
		}
	],
	"nodes":[
		{
			"mesh":0,
			"name":"Cylinder001",
			"scale":[
				0.009999999776482582,
				0.009999999776482582,
				0.009999999776482582
			]
		},
		{
			"children":[
				0
			],
			"name":"Node_1",
			"rotation":[
				-0.70710688829422,
				0,
				0,
				0.7071066498756409
			],
			"translation":[
				0.5505181550979614,
				0,
				-0.3588082790374756
			]
		},
		{
			"mesh":1,
			"name":"Cylinder003",
			"scale":[
				0.009999999776482582,
				0.009999999776482582,
				0.009999999776482582
			]
		},
		{
			"children":[
				2
			],
			"name":"Node_3",
			"rotation":[
				-0.70710688829422,
				0,
				0,
				0.7071066498756409
			],
			"translation":[
				2.086992025375366,
				0,
				0.5282752513885498
			]
		},
		{
			"mesh":0,
			"name":"Cylinder001.001",
			"scale":[
				0.009999999776482582,
				0.009999999776482582,
				0.009999999776482582
			]
		},
		{
			"children":[
				4
			],
			"name":"Node_5",
			"rotation":[
				-0.70710688829422,
				0,
				0,
				0.7071066498756409
			],
			"translation":[
				0.5505185127258301,
				0,
				1.4153587818145752
			]
		},
		{
			"mesh":2,
			"name":"Box002",
			"scale":[
				0.009999999776482582,
				0.009999999776482582,
				0.009999999776482582
			]
		},
		{
			"children":[
				6
			],
			"name":"Node_7",
			"rotation":[
				-0.70710688829422,
				0,
				0,
				0.7071066498756409
			],
			"translation":[
				0.5361796617507935,
				0,
				-0.37562668323516846
			]
		},
		{
			"mesh":3,
			"name":"Box003",
			"scale":[
				0.009999999776482582,
				0.009999999776482582,
				0.009999999776482582
			]
		},
		{
			"children":[
				8
			],
			"name":"Node_9",
			"rotation":[
				-0.70710688829422,
				0,
				0,
				0.7071066498756409
			],
			"translation":[
				2.1457979679107666,
				0,
				0.5936946272850037
			]
		},
		{
			"mesh":2,
			"name":"Box002.001",
			"scale":[
				0.009999999776482582,
				0.009999999776482582,
				0.009999999776482582
			]
		},
		{
			"children":[
				10
			],
			"name":"Node_11",
			"rotation":[
				-0.70710688829422,
				0,
				0,
				0.7071066498756409
			],
			"translation":[
				0.6067712306976318,
				0,
				1.408219814300537
			]
		},
		{
			"mesh":2,
			"name":"Box002.002",
			"scale":[
				0.009999999776482582,
				0.009999999776482582,
				0.009999999776482582
			]
		},
		{
			"children":[
				12
			],
			"name":"Node_13",
			"rotation":[
				-0.70710688829422,
				0,
				0,
				0.7071066498756409
			],
			"translation":[
				2.0956716537475586,
				0,
				-1.180191993713379
			]
		},
		{
			"mesh":4,
			"name":"Box005",
			"scale":[
				0.009999999776482582,
				0.009999999776482582,
				0.009999999776482582
			]
		},
		{
			"children":[
				14
			],
			"name":"Node_15",
			"rotation":[
				-0.70710688829422,
				0,
				0,
				0.7071066498756409
			],
			"translation":[
				2.0956716537475586,
				0,
				-1.7883901596069336
			]
		},
		{
			"mesh":5,
			"name":"Box006",
			"scale":[
				0.009999999776482582,
				0.009999999776482582,
				0.009999999776482582
			]
		},
		{
			"children":[
				16
			],
			"name":"Node_17",
			"rotation":[
				-0.70710688829422,
				0,
				0,
				0.7071066498756409
			],
			"translation":[
				2.0956716537475586,
				0,
				-0.7426393628120422
			]
		},
		{
			"mesh":0,
			"name":"Cylinder001.002",
			"scale":[
				0.009999999776482582,
				0.009999999776482582,
				0.009999999776482582
			]
		},
		{
			"children":[
				18
			],
			"name":"Node_19",
			"rotation":[
				-0.70710688829422,
				0,
				0,
				0.7071066498756409
			],
			"translation":[
				2.086991786956787,
				0,
				-1.245891809463501
			]
		}
	],
	"materials":[
		{
			"name":"floor_1",
			"pbrMetallicRoughness":{
				"baseColorFactor":[
					0.9411764740943909,
					0.42352941632270813,
					0.6039215922355652,
					1
				]
			}
		},
		{
			"name":"floor_2",
			"pbrMetallicRoughness":{
				"baseColorFactor":[
					0.3686274588108063,
					0.8196078538894653,
					0.3686274588108063,
					1
				]
			}
		},
		{
			"name":"box_1",
			"pbrMetallicRoughness":{
				"baseColorFactor":[
					0.3921568691730499,
					0.5254902243614197,
					0.8705882430076599,
					1
				]
			}
		},
		{
			"name":"box_2",
			"pbrMetallicRoughness":{
				"baseColorFactor":[
					0.2862745225429535,
					0.5411764979362488,
					0.6392157077789307,
					1
				]
			}
		},
		{
			"name":"box_3",
			"pbrMetallicRoughness":{
				"baseColorFactor":[
					0.10588235408067703,
					0.6941176652908325,
					0.5803921818733215,
					1
				]
			}
		},
		{
			"name":"box_4",
			"pbrMetallicRoughness":{
				"baseColorFactor":[
					0.10588235408067703,
					0.6941176652908325,
					0.5803921818733215,
					1
				]
			}
		}
	],
	"meshes":[
		{
			"name":"Cylinder001",
			"primitives":[
				{
					"attributes":{
						"POSITION":0,
						"NORMAL":1
					},
					"indices":2,
					"material":0
				}
			]
		},
		{
			"name":"Cylinder003",
			"primitives":[
				{
					"attributes":{
						"POSITION":3,
						"NORMAL":4
					},
					"indices":5,
					"material":1
				}
			]
		},
		{
			"name":"Box002",
			"primitives":[
				{
					"attributes":{
						"POSITION":6,
						"NORMAL":7
					},
					"indices":8,
					"material":2
				}
			]
		},
		{
			"name":"Box003",
			"primitives":[
				{
					"attributes":{
						"POSITION":9,
						"NORMAL":10
					},
					"indices":8,
					"material":3
				}
			]
		},
		{
			"name":"Box005",
			"primitives":[
				{
					"attributes":{
						"POSITION":11,
						"NORMAL":12
					},
					"indices":8,
					"material":4
				}
			]
		},
		{
			"name":"Box006",
			"primitives":[
				{
					"attributes":{
						"POSITION":13,
						"NORMAL":14
					},
					"indices":8,
					"material":5
				}
			]
		}
	],
	"accessors":[
		{
			"bufferView":0,
			"componentType":5126,
			"count":30,
			"max":[
				102.43157958984375,
				88.7083511352539,
				10
			],
			"min":[
				-102.43157958984375,
				-88.7083511352539,
				0
			],
			"type":"VEC3"
		},
		{
			"bufferView":1,
			"componentType":5126,
			"count":30,
			"type":"VEC3"
		},
		{
			"bufferView":2,
			"componentType":5123,
			"count":72,
			"type":"SCALAR"
		},
		{
			"bufferView":3,
			"componentType":5126,
			"count":26,
			"max":[
				102.43157958984375,
				88.7083511352539,
				10
			],
			"min":[
				-102.43157958984375,
				-88.7083511352539,
				0
			],
			"type":"VEC3"
		},
		{
			"bufferView":4,
			"componentType":5126,
			"count":26,
			"type":"VEC3"
		},
		{
			"bufferView":5,
			"componentType":5123,
			"count":60,
			"type":"SCALAR"
		},
		{
			"bufferView":6,
			"componentType":5126,
			"count":24,
			"max":[
				39.007747650146484,
				37.08525848388672,
				80.06765747070312
			],
			"min":[
				-39.007747650146484,
				-37.08525848388672,
				0
			],
			"type":"VEC3"
		},
		{
			"bufferView":7,
			"componentType":5126,
			"count":24,
			"type":"VEC3"
		},
		{
			"bufferView":8,
			"componentType":5123,
			"count":36,
			"type":"SCALAR"
		},
		{
			"bufferView":9,
			"componentType":5126,
			"count":24,
			"max":[
				39.007747650146484,
				37.08525848388672,
				80.06765747070312
			],
			"min":[
				-39.007747650146484,
				-37.08525848388672,
				0
			],
			"type":"VEC3"
		},
		{
			"bufferView":10,
			"componentType":5126,
			"count":24,
			"type":"VEC3"
		},
		{
			"bufferView":11,
			"componentType":5126,
			"count":24,
			"max":[
				39.007747650146484,
				23.73456573486328,
				40.834503173828125
			],
			"min":[
				-39.007747650146484,
				-23.73456573486328,
				0
			],
			"type":"VEC3"
		},
		{
			"bufferView":12,
			"componentType":5126,
			"count":24,
			"type":"VEC3"
		},
		{
			"bufferView":13,
			"componentType":5126,
			"count":24,
			"max":[
				20.67410659790039,
				6.670000076293945,
				40.834503173828125
			],
			"min":[
				-20.67410659790039,
				-6.670000076293945,
				0
			],
			"type":"VEC3"
		},
		{
			"bufferView":14,
			"componentType":5126,
			"count":24,
			"type":"VEC3"
		}
	],
	"bufferViews":[
		{
			"buffer":0,
			"byteLength":360,
			"byteOffset":0,
			"target":34962
		},
		{
			"buffer":0,
			"byteLength":360,
			"byteOffset":360,
			"target":34962
		},
		{
			"buffer":0,
			"byteLength":144,
			"byteOffset":720,
			"target":34963
		},
		{
			"buffer":0,
			"byteLength":312,
			"byteOffset":864,
			"target":34962
		},
		{
			"buffer":0,
			"byteLength":312,
			"byteOffset":1176,
			"target":34962
		},
		{
			"buffer":0,
			"byteLength":120,
			"byteOffset":1488,
			"target":34963
		},
		{
			"buffer":0,
			"byteLength":288,
			"byteOffset":1608,
			"target":34962
		},
		{
			"buffer":0,
			"byteLength":288,
			"byteOffset":1896,
			"target":34962
		},
		{
			"buffer":0,
			"byteLength":72,
			"byteOffset":2184,
			"target":34963
		},
		{
			"buffer":0,
			"byteLength":288,
			"byteOffset":2256,
			"target":34962
		},
		{
			"buffer":0,
			"byteLength":288,
			"byteOffset":2544,
			"target":34962
		},
		{
			"buffer":0,
			"byteLength":288,
			"byteOffset":2832,
			"target":34962
		},
		{
			"buffer":0,
			"byteLength":288,
			"byteOffset":3120,
			"target":34962
		},
		{
			"buffer":0,
			"byteLength":288,
			"byteOffset":3408,
			"target":34962
		},
		{
			"buffer":0,
			"byteLength":288,
			"byteOffset":3696,
			"target":34962
		}
	],
	"buffers":[
		{
			"byteLength":3984,
			"uri":"reexporthouse.bin"
		}
	]
}
